<svg id="Layer_1" data-name="Layer 1" xmlns="http://www.w3.org/2000/svg" viewBox="0 0 206.87 132.91"><defs><style>.cls-1{fill:#ffdd89;}</style></defs><title>crown</title><path class="cls-1" d="M217.22,34.52c-2.49-1.63-4.93-1.33-7.35.29-3.63,2.44-7.3,4.83-11,7.23q-11.38,7.5-22.77,15c-3.15,2.09-4.23,5.22-2.43,8.16a20,20,0,0,1,2.49,16.43,20.05,20.05,0,0,1-6,8.43c-5.87,4.47-12.24,5.1-19,2.39-4.93-2.48-8.59-6.38-9.91-11.59C139.47,73.73,141,67,147.7,61.54c3.84-3.14,4.31-6,1.44-10.07-9-12.84-18.13-25.58-26.89-38.58-3-4.38-8.62-4.6-11.71,0-8.8,13.05-18,25.85-27,38.74-2.75,3.94-2.3,6.88,1.53,9.9a18.12,18.12,0,0,1,3.07,25.71,23.61,23.61,0,0,1-6.54,5.27,20.32,20.32,0,0,1-13.28.79c-.11-.09-.19-.22-.31-.26a18.25,18.25,0,0,1-9.28-27.15c2.16-3.26,1.33-6.55-2-8.74Q39.66,45.79,22.49,34.55a6.59,6.59,0,0,0-4-1.08c-2.78.13-4.15,2.11-5.57,4.08v4c.72.46.65,1.27.82,1.95,2.32,9.08,4.6,18.17,6.93,27.25,2,7.78,4,15.56,6.05,23.34,3.69,14.64,7.34,29.29,11.1,43.91.87,3.38,7.13,4.39,7.13,4.39l142.67-.06s6.56-1.12,7.57-4.89c.55-2,1-4.12,1.58-6.18l12.42-49.25q5.15-20.19,10.3-40.38C220.29,38.5,219.49,36,217.22,34.52Z" transform="translate(-12.91 -9.52)"/></svg>